<?xml version="1.0" standalone="no"?>
<!DOCTYPE svg PUBLIC "-//W3C//DTD SVG 20010904//EN"
 "http://www.w3.org/TR/2001/REC-SVG-20010904/DTD/svg10.dtd">
<svg version="1.0" xmlns="http://www.w3.org/2000/svg"
 width="42.000000pt" height="42.000000pt" viewBox="0 0 42.000000 42.000000"
 preserveAspectRatio="xMidYMid meet">

<g transform="translate(0.000000,42.000000) scale(0.100000,-0.100000)"
fill="#000000" stroke="none">
<path d="M119 383 c-13 -17 -13 -17 6 -3 11 8 22 16 24 17 2 2 0 3 -6 3 -6 0
-17 -8 -24 -17z"/>
<path d="M100 335 c0 -14 4 -25 9 -25 4 0 6 11 3 25 -2 14 -6 25 -8 25 -2 0
-4 -11 -4 -25z"/>
<path d="M29 293 c-13 -16 -12 -17 4 -4 16 13 21 21 13 21 -2 0 -10 -8 -17
-17z"/>
<path d="M279 270 l-4 -35 -67 -3 c-53 -2 -71 -7 -92 -27 -15 -13 -26 -35 -26
-49 0 -30 -8 -36 -37 -25 -15 5 -24 20 -29 46 -8 44 -23 78 -24 53 0 -31 22
-95 38 -108 9 -6 26 -12 39 -12 19 0 23 5 23 33 0 53 33 77 107 77 68 0 87 13
81 57 -4 26 -4 26 -9 -7z"/>
<path d="M42 238 c-19 -19 -11 -98 9 -98 5 0 5 10 0 23 -10 25 -9 57 3 75 9
15 4 16 -12 0z"/>
</g>
</svg>
